<svg width="127" height="113" viewBox="0 0 127 113" fill="none" xmlns="http://www.w3.org/2000/svg">
<path d="M81.1678 2.23471L46.2205 69.2781H58.9989L81.1678 2.23471Z" fill="#A18B5C"/>
<path d="M1.47571 18.9163V14.8364C4.06063 14.8171 6.24044 14.1419 8.01516 12.8109C9.80916 11.4799 10.928 9.74372 11.3717 7.60249H16.4643V46H10.793V18.9163H1.47571ZM23.2642 46C23.3607 42.7013 24.113 39.8367 25.5212 37.4061C26.9487 34.9563 29.2346 32.7282 32.3789 30.722L38.7737 26.5553C42.3038 24.279 44.0689 21.617 44.0689 18.5691C44.0689 16.6207 43.413 15.01 42.1013 13.7368C40.8088 12.4444 39.0534 11.7981 36.835 11.7981C34.4816 11.7981 32.6586 12.5215 31.3662 13.9683C30.0737 15.3958 29.4275 17.3056 29.4275 19.6976C29.4275 19.794 29.4661 20.3631 29.5432 21.4048L23.7272 20.7103C23.6886 20.4788 23.6693 19.958 23.6693 19.1478C23.6693 15.6176 24.8942 12.6662 27.3441 10.2935C29.794 7.90149 32.9962 6.70549 36.9507 6.70549C40.8667 6.70549 44.0014 7.82433 46.3548 10.062C48.7275 12.2997 49.9139 15.1161 49.9139 18.5112C49.9139 23.3724 47.5026 27.3173 42.68 30.3459L35.0989 35.207C32.3982 36.9046 30.8357 38.7082 30.4113 40.618H50.1454V46H23.2642Z" fill="white"/>
<path d="M74.7522 43.4988V39.4189C77.3371 39.3996 79.5169 38.7244 81.2916 37.3934C83.0857 36.0623 84.2045 34.3262 84.6482 32.185H89.7408V70.5825H84.0695V43.4988H74.7522ZM96.5407 70.5825C96.6371 67.2838 97.3895 64.4192 98.7977 61.9886C100.225 59.5387 102.511 57.3107 105.655 55.3045L112.05 51.1378C115.58 48.8615 117.345 46.1994 117.345 43.1516C117.345 41.2032 116.69 39.5925 115.378 38.3193C114.085 37.0269 112.33 36.3806 110.111 36.3806C107.758 36.3806 105.935 37.104 104.643 38.5508C103.35 39.9783 102.704 41.888 102.704 44.28C102.704 44.3765 102.743 44.9456 102.82 45.9872L97.0037 45.2928C96.9651 45.0613 96.9458 44.5405 96.9458 43.7303C96.9458 40.2001 98.1707 37.2487 100.621 34.876C103.07 32.484 106.273 31.288 110.227 31.288C114.143 31.288 117.278 32.4068 119.631 34.6445C122.004 36.8822 123.19 39.6986 123.19 43.0937C123.19 47.9549 120.779 51.8998 115.956 54.9283L108.375 59.7895C105.675 61.4871 104.112 63.2907 103.688 65.2005H123.422V70.5825H96.5407Z" fill="white"/>
<path d="M15.273 79.8158H17.6054L12.853 92.5738H10.9327L6.17147 79.8158H8.51262L11.8621 89.461H11.8972L15.273 79.8158ZM23.2049 92.5738V79.8158H31.2279V81.7624H25.3707V85.2785H30.1056V87.2251H25.3707V90.6272H31.605V92.5738H23.2049ZM46.1219 79.8158H48.2876V92.5738H46.078L39.9051 83.5511H39.87V92.5738H37.7042V79.8158H39.8525L46.078 88.97H46.1219V79.8158ZM57.64 92.5738V81.7624H54.0186V79.8158H63.4622V81.7624H59.8058V92.5738H57.64ZM74.0771 92.7141C73.3231 92.7141 72.6304 92.6001 72.0078 92.3546C71.3852 92.1178 70.8504 91.7758 70.412 91.3199C69.9648 90.8639 69.6228 90.3028 69.3773 89.6188C69.1318 88.9437 69.009 88.1808 69.009 87.3303V79.8158H71.1748V87.1637C71.1748 87.8476 71.2888 88.4439 71.5168 88.97C71.7447 89.4961 72.0779 89.9169 72.5164 90.2151C72.9548 90.5132 73.4809 90.6623 74.0771 90.6623C74.9452 90.6623 75.6467 90.3554 76.1903 89.724C76.7339 89.1015 77.0058 88.251 77.0058 87.1637V79.8158H79.1715V87.3303C79.1715 88.9963 78.7156 90.3028 77.8125 91.2673C76.9005 92.2318 75.6554 92.7141 74.0771 92.7141ZM95.2404 92.5738H92.6362L89.5936 88.023H87.875V92.5738H85.7092V79.8158H90.4178C91.0053 79.8158 91.5402 79.8859 92.0225 80.0175C92.5047 80.1578 92.9168 80.3419 93.2588 80.5874C93.592 80.8329 93.8813 81.1311 94.1093 81.473C94.3373 81.8238 94.5039 82.2008 94.6091 82.6129C94.7143 83.0338 94.7757 83.481 94.7757 83.9545C94.7757 84.9804 94.5302 85.8134 94.0392 86.4622C93.5481 87.1111 92.8642 87.5495 91.9786 87.795V87.8301L95.2404 92.5738ZM87.875 81.7624V86.0764H89.9444C90.7861 86.0764 91.435 85.8835 91.8734 85.4889C92.3118 85.1031 92.531 84.577 92.531 83.9106C92.531 83.2442 92.3118 82.7181 91.8909 82.3323C91.47 81.9553 90.865 81.7624 90.0934 81.7624H87.875ZM101.05 92.5738V79.8158H109.073V81.7624H103.216V85.2785H107.951V87.2251H103.216V90.6272H109.45V92.5738H101.05ZM119.364 92.7141C118.522 92.7141 117.698 92.5475 116.909 92.2143C116.111 91.8811 115.383 91.3813 114.734 90.7149L116.102 89.0313C116.549 89.575 117.067 89.9959 117.645 90.2852C118.224 90.5746 118.803 90.7149 119.373 90.7149C120.057 90.7149 120.583 90.5833 120.951 90.3028C121.311 90.0222 121.495 89.6451 121.495 89.1541C121.495 88.9963 121.468 88.856 121.433 88.7245C121.398 88.5929 121.346 88.4789 121.293 88.3737C121.232 88.2685 121.144 88.172 121.03 88.0668C120.907 87.9704 120.793 87.8827 120.679 87.8125C120.565 87.7424 120.407 87.6722 120.214 87.5846C120.022 87.4969 119.837 87.4267 119.68 87.3566C119.513 87.2952 119.294 87.2163 119.031 87.1198C118.715 87.0146 118.435 86.9094 118.207 86.813C117.97 86.7253 117.707 86.6025 117.426 86.4622C117.146 86.3219 116.9 86.1816 116.698 86.0413C116.497 85.901 116.295 85.7257 116.093 85.5328C115.883 85.3399 115.725 85.1294 115.602 84.9102C115.48 84.691 115.374 84.4367 115.295 84.1561C115.217 83.8756 115.181 83.5687 115.181 83.2442C115.181 82.5954 115.357 81.9904 115.725 81.4379C116.085 80.8943 116.576 80.4647 117.189 80.149C117.803 79.8333 118.478 79.6755 119.206 79.6755C120.679 79.6755 122.091 80.1928 123.432 81.245L122.144 82.9461C121.091 82.078 120.118 81.6396 119.206 81.6396C118.698 81.6396 118.268 81.7799 117.935 82.043C117.602 82.306 117.426 82.6743 117.426 83.1302C117.417 83.5687 117.628 83.9194 118.057 84.2C118.329 84.3753 118.917 84.6384 119.811 84.9804C120.863 85.4012 121.582 85.7081 121.951 85.9098C122.757 86.357 123.283 86.9182 123.538 87.5846C123.678 87.9704 123.757 88.4088 123.757 88.8998C123.757 89.4084 123.669 89.8819 123.494 90.3028C123.318 90.7324 123.082 91.0919 122.792 91.3813C122.503 91.6794 122.17 91.9249 121.784 92.1266C121.398 92.337 121.004 92.4861 120.6 92.5738C120.188 92.6702 119.776 92.7141 119.364 92.7141Z" fill="#C0C0C0"/>
</svg>
