<svg width="46" height="32" viewBox="0 0 46 32" fill="none" xmlns="http://www.w3.org/2000/svg">
<path d="M0.984 21.808C1.976 21.664 2.672 21.44 3.072 21.136C3.472 20.816 3.672 20.288 3.672 19.552V12.4C3.672 11.872 3.568 11.48 3.36 11.224C3.168 10.968 2.824 10.84 2.328 10.84C2.056 10.84 1.608 10.936 0.984 11.128L0.912 10.888L7.032 8.344H7.248V19.552C7.248 20.272 7.456 20.8 7.872 21.136C8.288 21.456 8.976 21.68 9.936 21.808V22H0.984V21.808ZM11.2183 21.832L14.3863 18.976C15.6343 17.84 16.5143 16.848 17.0263 16C17.5383 15.152 17.7943 14.208 17.7943 13.168C17.7943 12.208 17.5543 11.464 17.0743 10.936C16.5943 10.408 15.9623 10.144 15.1783 10.144C14.3783 10.144 13.7063 10.384 13.1623 10.864C12.6343 11.328 12.2423 12.016 11.9863 12.928L11.6983 12.856C11.9063 11.432 12.4823 10.328 13.4263 9.544C14.3863 8.744 15.6103 8.344 17.0983 8.344C18.5063 8.344 19.6183 8.672 20.4343 9.328C21.2503 9.984 21.6583 10.88 21.6583 12.016C21.6583 12.72 21.4903 13.368 21.1543 13.96C20.8343 14.552 20.3223 15.16 19.6183 15.784C18.9303 16.408 17.9623 17.144 16.7143 17.992L15.3703 18.952H22.1863L21.2263 22H11.2183V21.832Z" fill="#EFA73D"/>
<path d="M23.984 21.808C24.976 21.664 25.672 21.44 26.072 21.136C26.472 20.816 26.672 20.288 26.672 19.552V12.4C26.672 11.872 26.568 11.48 26.36 11.224C26.168 10.968 25.824 10.84 25.328 10.84C25.056 10.84 24.608 10.936 23.984 11.128L23.912 10.888L30.032 8.344H30.248V19.552C30.248 20.272 30.456 20.8 30.872 21.136C31.288 21.456 31.976 21.68 32.936 21.808V22H23.984V21.808ZM34.2183 21.832L37.3863 18.976C38.6343 17.84 39.5143 16.848 40.0263 16C40.5383 15.152 40.7943 14.208 40.7943 13.168C40.7943 12.208 40.5543 11.464 40.0743 10.936C39.5943 10.408 38.9623 10.144 38.1783 10.144C37.3783 10.144 36.7063 10.384 36.1623 10.864C35.6343 11.328 35.2423 12.016 34.9863 12.928L34.6983 12.856C34.9063 11.432 35.4823 10.328 36.4263 9.544C37.3863 8.744 38.6103 8.344 40.0983 8.344C41.5063 8.344 42.6183 8.672 43.4343 9.328C44.2503 9.984 44.6583 10.88 44.6583 12.016C44.6583 12.72 44.4903 13.368 44.1543 13.96C43.8343 14.552 43.3223 15.16 42.6183 15.784C41.9303 16.408 40.9623 17.144 39.7143 17.992L38.3703 18.952H45.1863L44.2263 22H34.2183V21.832Z" fill="#17213A"/>
<path d="M3.65674 24.8687L3.01807 26.6235H3.01367L2.37939 24.8687H2.09668L2.89941 27H3.13525L3.93799 24.8687H3.65674ZM4.89541 27H6.26211V26.7598H5.15762V26.0625H6.01309V25.8223H5.15762V25.1089H6.19912V24.8687H4.89541V27ZM8.75322 24.8687V26.5664H8.74736L7.54619 24.8687H7.28838V27H7.54912V25.3198H7.55498L8.74883 27H9.01396V24.8687H8.75322ZM10.6159 27H10.8767V25.1089H11.5212V24.8687H9.97871V25.1089H10.6159V27ZM13.2799 27.019C13.5333 27.019 13.734 26.9399 13.8834 26.7817C14.0328 26.6235 14.1075 26.4067 14.1075 26.1328V24.8687H13.8468V26.1138C13.8468 26.3174 13.794 26.4771 13.69 26.5942C13.5846 26.7114 13.4483 26.77 13.2799 26.77C13.1085 26.77 12.9723 26.7114 12.8697 26.5913C12.7672 26.4712 12.7174 26.313 12.7174 26.1138V24.8687H12.4566V26.1328C12.4566 26.272 12.4757 26.3979 12.5167 26.5093C12.5562 26.6206 12.6119 26.7144 12.6852 26.7876C12.7569 26.8623 12.8434 26.9194 12.9444 26.959C13.0455 27 13.1568 27.019 13.2799 27.019ZM16.7378 27L16.1709 26.1665L16.1724 26.1636C16.332 26.1299 16.4565 26.0596 16.5459 25.9541C16.6353 25.8486 16.6807 25.7065 16.6807 25.5293C16.6807 25.4326 16.666 25.3447 16.6382 25.2656C16.6104 25.1865 16.5679 25.1177 16.5122 25.0576C16.4565 24.999 16.3833 24.9521 16.2925 24.9185C16.2017 24.8862 16.0962 24.8687 15.9761 24.8687H15.2202V27H15.481V26.187H15.8794L16.4229 27H16.7378ZM15.481 25.1089H15.9424C16.0889 25.1089 16.2046 25.1455 16.2866 25.2158C16.3687 25.2876 16.4097 25.3901 16.4097 25.5234C16.4097 25.6523 16.3672 25.7563 16.2837 25.8325C16.2002 25.9087 16.0742 25.9468 15.9058 25.9468H15.481V25.1089ZM17.7509 27H19.1176V26.7598H18.0131V26.0625H18.8686V25.8223H18.0131V25.1089H19.0546V24.8687H17.7509V27ZM20.7605 27.019C20.8338 27.019 20.9056 27.0117 20.9759 26.9956C21.0447 26.9795 21.1092 26.9546 21.1692 26.9209C21.2293 26.8872 21.282 26.8462 21.3274 26.7993C21.3714 26.7524 21.4065 26.6968 21.4329 26.6309C21.4593 26.5649 21.4725 26.4932 21.4725 26.417C21.4725 26.335 21.4593 26.2617 21.4329 26.1973C21.3875 26.0918 21.2967 26.0024 21.1619 25.9292C21.1048 25.8999 20.9891 25.8501 20.8133 25.7812L20.8118 25.7798H20.8104H20.8089L20.8074 25.7783H20.806L20.8045 25.7769C20.6507 25.7183 20.5481 25.6714 20.4969 25.6362C20.4031 25.5747 20.3563 25.4971 20.3577 25.4004C20.3577 25.3359 20.3753 25.2803 20.4119 25.2334C20.4471 25.1865 20.4939 25.1514 20.5496 25.1279C20.6053 25.1045 20.6683 25.0928 20.7356 25.0928C20.8177 25.0928 20.9026 25.1104 20.9935 25.1455C21.0843 25.1807 21.1707 25.2334 21.2542 25.3008L21.4109 25.0986C21.3084 25.0181 21.2 24.9565 21.0857 24.9126C20.97 24.8701 20.8543 24.8496 20.7371 24.8496C20.617 24.8496 20.5071 24.8745 20.4075 24.9243C20.3079 24.9741 20.2288 25.0415 20.1717 25.1279C20.1146 25.2144 20.0867 25.3096 20.0867 25.4136C20.0867 25.4648 20.0926 25.5132 20.1058 25.5586C20.1189 25.604 20.1351 25.6436 20.1556 25.6772C20.1761 25.7124 20.2024 25.7446 20.2376 25.7769C20.2728 25.8091 20.3064 25.8354 20.3387 25.8574C20.3709 25.8794 20.4104 25.9014 20.4588 25.9248C20.5071 25.9482 20.5496 25.9673 20.5862 25.9819C20.6229 25.9966 20.6683 26.0142 20.7225 26.0347L20.7254 26.0361H20.7269H20.7283L20.7298 26.0376H20.7313L20.7327 26.0391H20.7342H20.7356L20.7371 26.0405H20.7386H20.74L20.7415 26.042H20.743L20.7444 26.0435H20.7459H20.7474L20.7488 26.0449H20.7503L20.7518 26.0464H20.7532H20.7547L20.7562 26.0479H20.7576H20.7591L20.7605 26.0493H20.762L20.7635 26.0508H20.7649H20.7664L20.7679 26.0522C20.9144 26.1079 21.014 26.1533 21.0667 26.1899C21.1546 26.2529 21.2 26.3379 21.2 26.4463C21.2 26.5474 21.159 26.6265 21.0799 26.6851C21.0008 26.7437 20.8953 26.7715 20.7635 26.7715C20.6551 26.7715 20.5481 26.748 20.4427 26.6997C20.3372 26.6514 20.2464 26.5811 20.1717 26.4888L20.0062 26.6895C20.1087 26.8008 20.2244 26.8828 20.3563 26.937C20.4866 26.9927 20.6214 27.019 20.7605 27.019Z" fill="black"/>
</svg>
